<svg id="Layer_1" enable-background="new 0 0 128 128" height="512" viewBox="0 0 128 128" width="512" xmlns="http://www.w3.org/2000/svg"><path d="m89.496 44.653c0 2.652-1.525 4.815-3.404 4.815-.615 0-1.195-.228-1.685-.626.216-1.252.33-2.538.33-3.847v-4.769c.41-.25.877-.387 1.355-.387 1.879-.001 3.404 2.15 3.404 4.814z" fill="#f8db59"/><path d="m39.274 48.853c-.49.387-1.059.615-1.673.615-1.878 0-3.415-2.163-3.415-4.815 0-2.664 1.537-4.815 3.415-4.815.478 0 .933.137 1.343.387v4.769c0 1.321.114 2.607.33 3.859z" fill="#f8db59"/><path d="m95.353 110.064h-67.016c-1.175 0-2.127-.952-2.127-2.127v-11.222c0-16.255 13.177-29.432 29.432-29.432h12.405c16.255 0 29.433 13.177 29.433 29.432v11.222c0 1.175-.952 2.127-2.127 2.127z" fill="#6dc9f7"/><path d="m61.841 81.775 4.2-1.082c2.341-5.451 4.789-11.77 4.789-14.36v-.275c-2.759 1.179-5.795 1.834-8.985 1.834-3.19 0-6.226-.656-8.985-1.834v.275c0 2.591 2.449 8.911 4.79 14.363z" fill="#d4fbff"/><path d="m61.845 67.892c-3.19 0-6.226-.656-8.985-1.834v.275c0 .276.028.594.08.948 1.482 10.035 16.327 10.035 17.81 0 .052-.355.08-.673.08-.948v-.275c-2.759 1.178-5.795 1.834-8.985 1.834z" fill="#f8db59"/><path d="m39.188 27.477c-.159.974-.244 2.02-.244 3.152v14.365c0 1.32.114 2.607.33 3.859 1.833 10.814 11.246 19.044 22.572 19.044 11.338 0 20.74-8.241 22.561-19.055.216-1.252.33-2.538.33-3.847v-14.366c0-1.114-.084-2.161-.238-3.152z" fill="#f8db59"/><ellipse cx="76.522" cy="46.411" fill="#ffd7e5" rx="2.286" ry="1.441"/><ellipse cx="47.168" cy="46.091" fill="#ffd7e5" rx="2.286" ry="1.441"/><path d="m62.249 59.029c-3.881 0-5.854-2.671-5.936-2.785-.344-.477-.236-1.141.24-1.485.473-.343 1.136-.238 1.48.234.064.085 1.459 1.908 4.215 1.908 2.698 0 4.168-1.849 4.229-1.928.359-.463 1.026-.549 1.489-.193.464.356.556 1.017.202 1.483-.083.114-2.136 2.766-5.919 2.766z" fill="#fa759e"/><path d="m34.664 9.188h54.354v18.289h-54.354z" fill="#0089ef"/><path d="m34.664 9.188h3.191v18.289h-3.191z" fill="#f8db59"/><path d="m100.131 6.838c0 1.293-1.045 2.35-2.35 2.35h-71.892c-1.293 0-2.338-1.057-2.338-2.35s1.045-2.338 2.338-2.338h71.892c1.306 0 2.35 1.045 2.35 2.338z" fill="#0089ef"/><path d="m36.764 75.313c-1.346-.347-2.658.67-2.658 2.06v22.795c.027 0 .054-.004.081-.004h3.805c2.304 0 4.172 1.868 4.172 4.172v7.61c0 .739-.209 1.423-.546 2.025l20.223 5.211v-37.407z" fill="#fa759e"/><path d="m81.526 111.946v-7.61c0-2.304 1.868-4.172 4.172-4.172h3.805c.025 0 .048.003.073.004v-22.795c0-1.39-1.312-2.407-2.658-2.06l-25.077 6.462v37.407l20.23-5.213c-.337-.601-.545-1.285-.545-2.023z" fill="#fa759e"/><path d="m34.187 116.118h3.805c2.304 0 4.172-1.868 4.172-4.172v-7.61c0-2.304-1.868-4.172-4.172-4.172h-3.805c-4.406 0-7.977 3.571-7.977 7.977 0 4.406 3.572 7.977 7.977 7.977z" fill="#f8db59"/><path d="m89.503 116.118h-3.805c-2.304 0-4.172-1.868-4.172-4.172v-7.61c0-2.304 1.868-4.172 4.172-4.172h3.805c4.406 0 7.977 3.571 7.977 7.977 0 4.406-3.571 7.977-7.977 7.977z" fill="#f8db59"/><path d="m68.223 97.148 14.971-3.858v-10.636l-14.971 3.858z" fill="#ffd7e5"/><g fill="#3a2c60"><circle cx="51.744" cy="41.79" r="2.29"/><path d="m71.947 39.5c-1.265 0-2.29 1.025-2.29 2.29s1.025 2.29 2.29 2.29 2.29-1.025 2.29-2.29-1.026-2.29-2.29-2.29z"/><path d="m61.845 52.981c1.987 0 3.604-1.617 3.604-3.604v-1.526c0-.552-.447-1-1-1s-1 .448-1 1v1.526c0 .884-.72 1.604-1.604 1.604s-1.604-.72-1.604-1.604v-1.526c0-.552-.447-1-1-1s-1 .448-1 1v1.526c0 1.988 1.617 3.604 3.604 3.604z"/><path d="m70.206 34.807 4.483.781c.059.01.116.015.173.015.478 0 .899-.342.984-.828.095-.544-.27-1.062-.813-1.157l-4.483-.781c-.551-.089-1.062.27-1.157.813-.095.544.269 1.061.813 1.157z"/><path d="m48.827 35.603c.057 0 .114-.005.173-.015l4.483-.781c.544-.095.908-.613.813-1.157-.095-.543-.605-.903-1.157-.813l-4.483.781c-.544.095-.908.613-.813 1.157.085.485.507.828.984.828z"/><path d="m90.018 27.477v-17.289h7.764c1.847 0 3.35-1.503 3.35-3.35 0-1.84-1.503-3.338-3.35-3.338h-71.893c-1.841 0-3.338 1.498-3.338 3.338 0 1.847 1.497 3.35 3.338 3.35h1.956l.013 18.892c-.671.358-1.133 1.056-1.133 1.87 0 .599.249 1.137.647 1.524l-1.465 5.587c-.177.674.332 1.333 1.029 1.333h3.834c.697 0 1.206-.659 1.029-1.333l-1.465-5.587c.398-.387.647-.925.647-1.524 0-.809-.457-1.504-1.121-1.863l-.013-18.898h3.819v17.289c0 .537.426.968.958.991-1.016 2.946-1.577 6.104-1.577 9.396 0 0 1.239 17.132-4.294 26.186-4.501 7.366-4.476 15.512-1.608 22.012-1.245 3.318-1.933 6.906-1.933 10.653v11.222c0 .02.007.039.007.059-.001.049-.007.096-.007.145 0 4.95 4.027 8.977 8.978 8.977h3.805c1.652 0 3.109-.793 4.057-2.003l19.542 5.035c.083.021.167.032.25.032s.167-.01.25-.032l19.549-5.037c.947 1.211 2.405 2.005 4.058 2.005h3.805c4.95 0 8.978-4.027 8.978-8.977 0-.049-.007-.096-.007-.145 0-.02.007-.038.007-.059v-11.223c0-3.9-.741-7.628-2.083-11.057 2.66-6.665 3.358-15.478-.98-22.883-5.833-9.958-4.652-24.912-4.652-24.912 0-3.3-.564-6.467-1.585-9.42.468-.079.834-.471.834-.966zm-19.135-17.289c.553 0 1-.448 1-1s-.447-1-1-1h-44.994c-.737 0-1.338-.605-1.338-1.35 0-.738.601-1.338 1.338-1.338h71.893c.757 0 1.35.588 1.35 1.338 0 .745-.605 1.35-1.35 1.35h-13.472c-.553 0-1 .448-1 1s.447 1 1 1h3.708v16.289h-52.354v-16.289zm-9.042 70.554-3.455-.89c-.824-1.937-1.63-3.905-2.331-5.756 1.742 1.155 3.808 1.711 5.789 1.711 1.982 0 4.048-.556 5.79-1.711-.701 1.851-1.506 3.818-2.33 5.754zm-24.24-39.904c.116 0 .23.014.344.041v4.116c0 1.123.099 2.242.256 3.346-.005.003-.018.007-.018.01-.19.078-.385.118-.582.118-1.309 0-2.414-1.747-2.414-3.815s1.105-3.816 2.414-3.816zm16.415 26.737c2.462.849 5.094 1.322 7.831 1.322 2.736 0 5.367-.473 7.828-1.321-.853 4.295-4.494 6.231-7.83 6.231s-6.976-1.937-7.829-6.232zm32.076-19.107c-.2 0-.4-.042-.594-.123 0-.003-.013-.006-.018-.01.158-1.105.257-2.223.257-3.341v-4.114c1.397-.332 2.759 1.516 2.759 3.773 0 2.068-1.1 3.815-2.404 3.815zm-24.155-19.991c1.521.723 3.218 1.411 5.111 1.982 6.589 1.992 14.044 2.059 16.689 2.01v12.525c0 1.231-.106 2.468-.316 3.681-1.777 10.559-10.851 18.222-21.574 18.222-10.72 0-19.798-7.659-21.587-18.214-.209-1.209-.315-2.45-.315-3.688v-14.004c1.505-.312 4.45-1.06 6.997-2.514zm-9.771 40.031c.004.015.009.028.013.043.638 2.787 2.159 6.82 3.763 10.671l-18.086-4.66c4.021-3.233 8.935-5.395 14.31-6.054zm19.347.037c.003-.013.008-.024.011-.037 5.374.659 10.287 2.82 14.308 6.052l-18.082 4.66c1.605-3.854 3.126-7.888 3.763-10.675zm-44.303 28.17c0-6.51 2.2-12.514 5.896-17.311v19.831c-2.373.287-4.463 1.499-5.896 3.269zm10.782 18.403h-3.805c-3.848 0-6.978-3.13-6.978-6.977s3.13-6.977 6.978-6.977h3.805c1.749 0 3.172 1.423 3.172 3.172v7.609c0 1.75-1.423 3.173-3.172 3.173zm0-15.954h-2.887v-21.791c0-.122.026-.239.063-.351.234-.243.471-.483.714-.718.112-.037.229-.058.348-.058.094 0 .189.012.283.036l24.327 6.268v35.342l-17.875-4.606c.116-.43.198-.874.198-1.34v-7.609c.001-2.853-2.319-5.173-5.171-5.173zm24.849 18.728v-35.342l24.327-6.268c.219-.057.445-.039.654.034.233.226.461.457.687.691.04.117.068.238.068.366v21.791h-2.878c-2.852 0-5.172 2.32-5.172 5.172v7.609c0 .466.082.909.198 1.338zm26.662-2.774h-3.805c-1.749 0-3.172-1.423-3.172-3.172v-7.609c0-1.749 1.423-3.172 3.172-3.172h3.805c3.848 0 6.978 3.13 6.978 6.977s-3.13 6.976-6.978 6.976zm6.978-12.614c-1.434-1.772-3.528-2.985-5.904-3.27v-19.84c3.7 4.798 5.904 10.807 5.904 17.322z"/><path d="m74.861 10.188h5.593c.553 0 1-.448 1-1s-.447-1-1-1h-5.593c-.553 0-1 .448-1 1s.448 1 1 1z"/><path d="m84.194 93.291v-10.637c0-.309-.143-.601-.388-.791-.244-.189-.561-.257-.862-.178l-14.972 3.858c-.441.114-.75.512-.75.968v10.636c0 .309.143.601.388.791.177.137.393.209.612.209.083 0 .167-.01.249-.032l14.972-3.857c.443-.113.751-.511.751-.967zm-2-.775-12.972 3.342v-8.57l12.972-3.342z"/></g></svg>
