<?xml version="1.0"?>
<svg width="100" height="100" xmlns="http://www.w3.org/2000/svg" xmlns:svg="http://www.w3.org/2000/svg" preserveAspectRatio="xMidYMid meet">
 <metadata>Created by potrace 1.16, written by Peter Selinger 2001-2019</metadata>

 <g class="layer">
  <title>Layer 1</title>
  <g fill="#000000" id="svg_1" transform="translate(0, 100) scale(0.1, -0.1)">
   <path d="m417,910c-224,-57 -329,-327 -201,-522c21,-34 24,-49 24,-140c1,-108 5,-120 50,-151c21,-15 52,-17 210,-17c158,0 189,2 210,17c35,24 49,44 50,71c0,15 22,45 60,83c72,72 115,157 131,257c11,64 10,75 -4,89c-25,25 -43,2 -50,-64c-7,-68 -62,-185 -106,-227l-31,-30l0,35c0,20 16,65 37,108c35,69 38,81 38,160c0,72 -4,95 -27,142c-53,115 -159,187 -285,194c-37,2 -85,0 -106,-5zm212,-74c64,-33 127,-106 146,-169c33,-111 -18,-251 -116,-319c-122,-85 -267,-72 -369,33c-152,157 -72,424 145,480c50,13 141,1 194,-25zm-281,-555c21,-11 63,-24 95,-30c66,-12 150,0 209,30c20,10 42,19 48,19c6,0 10,-27 10,-67c0,-104 1,-103 -208,-103c-213,0 -212,-1 -212,102c0,40 4,68 10,68c6,0 28,-9 48,-19z" id="svg_2"/>
  </g>
  <polygon fill="#f8db59" id="svg_3"/>
  <polygon fill="#f8db59" id="svg_4" points="-225.93289946109863,439.25 -226.3247562959603,439.7893446629166 -226.9587939734904,439.5833333333333 -226.9587939734904,438.9166666666667 -226.3247562959603,438.7106553370834 -225.93289946109863,439.25 " stroke-width="5"/>
  <circle cx="49.94583" cy="41.97916" fill="#f8db59" id="svg_6" r="28.94629" stroke-width="5"/>
  <path d="m43.10236,42.12866c0,-3.96634 3.21274,-7.17908 7.17908,-7.17908c3.96634,0 7.17908,3.21274 7.17908,7.17908c0,3.96634 -3.21274,7.17908 -7.17908,7.17908c-3.96634,0 -7.17908,-3.21274 -7.17908,-7.17908z" fill="#ff6144" id="svg_13" stroke-width="5"/>
  <circle cx="50.21788" cy="42.34682" fill="#f8db59" id="svg_15" r="1.97515" stroke-width="5"/>
  <path d="m77.89584,39.44791c1.84375,0.0625 1.875,12.875 -6.25,21.875c-8.125,9 -22.25,11 -22.25,9.125c0,-1.875 14.25,-3 21,-11.375c6.75,-8.375 5.65625,-19.6875 7.5,-19.625z" fill="#ff6144" id="svg_20" stroke-width="5"/>
  <circle cx="23.0375" cy="40.4875" fill="#ffffff" id="svg_22" r="1.976419" stroke-width="5"/>
  <path d="m37.725,16.1125c1.75,1.125 -1.5,2.875 -5.875,8.375c-4.375,5.5 -7.125,10 -9,9.25c-1.875,-0.75 4.125,-10 5.625,-11.5c1.5,-1.5 7.5,-7.25 9.25,-6.125z" fill="#ffffff" id="svg_29" stroke-width="5"/>
  <path d="m50.35,75.425c8.25,0.15625 19.125,-6.0625 19.84375,-5.3125c0.71875,0.75 1.5625,13.34375 -0.59375,14.875c-2.15625,1.53125 -3.40625,2.1875 -19.625,2c-16.21875,-0.1875 -17.65625,-0.03125 -19.75,-2.25c-2.09375,-2.21875 -1.59375,-15.09375 -0.1875,-14.71875c1.40625,0.375 12.0625,5.25 20.3125,5.40625z" fill="#ffffff" id="svg_32" stroke-width="5"/>
 </g>
</svg>